# xmcd CD database file
#
# Track frame offsets:
#	150
#	15227
#	27216
#	42753
#	54312
#	73994
#	89113
#	101377
#	114367
#	128184
#	146548
#	159586
#	173514
#	192449
#	209940
#
# Disc length: 3238 seconds
#
# Revision: 0
# Processed by: cddbd v1.5.1PL0 Copyright (c) Steve Scherf et al.
# Submitted via: CDex 1.60beta1
#
DISCID=cf0ca40f
DTITLE=Wright Brothers - Overboard Sound Track
DYEAR=0
DGENRE=Country
TTITLE0=Man Overboard
TTITLE1=Arkansas Traveler
TTITLE2=Shot Down In Hot Blood
TTITLE3=Smoke Gets In Your Eyes
TTITLE4=Caught Up In Heartaches
TTITLE5=I Only Have Eyes For You
TTITLE6=Jim Dandy To The Rescue
TTITLE7=I Can't Help Falling In Love With You
TTITLE8=She Loves The Man On The Radio
TTITLE9=The Heart Somebody Left Behind
TTITLE10=Streamline
TTITLE11=True Blue
TTITLE12=Legs
TTITLE13=Sharp Dressed Man
TTITLE14=I Can't Help Falling In Love With You
EXTD=YEAR: 0
EXTT0=
EXTT1=
EXTT2=
EXTT3=
EXTT4=
EXTT5=
EXTT6=
EXTT7=
EXTT8=
EXTT9=
EXTT10=
EXTT11=
EXTT12=
EXTT13=
EXTT14=
PLAYORDER=
